<svg width="211.000000" height="51.000000" viewBox="0 0 211 51" fill="none" xmlns="http://www.w3.org/2000/svg" xmlns:xlink="http://www.w3.org/1999/xlink">
	<desc>
			Created with Pixso.
	</desc>
	<defs>
		<filter id="filter_1_1001_dd" x="0.000000" y="0.000000" width="211.000000" height="51.000000" filterUnits="userSpaceOnUse" color-interpolation-filters="sRGB">
			<feFlood flood-opacity="0" result="BackgroundImageFix"/>
			<feColorMatrix in="SourceAlpha" type="matrix" values="0 0 0 0 0 0 0 0 0 0 0 0 0 0 0 0 0 0 127 0" result="hardAlpha"/>
			<feOffset dx="0" dy="0.5"/>
			<feGaussianBlur stdDeviation="0.666667"/>
			<feComposite in2="hardAlpha" operator="out" k2="-1" k3="1"/>
			<feColorMatrix type="matrix" values="0 0 0 0 0 0 0 0 0 0 0 0 0 0 0 0 0 0 0.1 0"/>
			<feBlend mode="normal" in2="BackgroundImageFix" result="effect_dropShadow_1"/>
			<feBlend mode="normal" in="SourceGraphic" in2="effect_dropShadow_1" result="shape"/>
		</filter>
		<clipPath id="clip1_1003">
			<rect id="Frame" width="24.000000" height="24.000000" transform="translate(14.000000 12.500000)" fill="white" fill-opacity="0"/>
		</clipPath>
		<linearGradient id="paint_linear_1_1006_0" x1="17.667086" y1="21.877617" x2="24.229588" y2="18.044249" gradientUnits="userSpaceOnUse">
			<stop stop-color="#A52714" stop-opacity="0.600000"/>
			<stop offset="0.660000" stop-color="#A52714" stop-opacity="0.000000"/>
		</linearGradient>
		<linearGradient id="paint_linear_1_1010_0" x1="27.858997" y1="33.061932" x2="20.567249" y2="28.791182" gradientUnits="userSpaceOnUse">
			<stop stop-color="#055524" stop-opacity="0.400000"/>
			<stop offset="0.330000" stop-color="#055524" stop-opacity="0.000000"/>
		</linearGradient>
		<linearGradient id="paint_linear_1_1015_0" x1="29.232250" y1="18.725500" x2="31.068378" y2="26.766249" gradientUnits="userSpaceOnUse">
			<stop stop-color="#EA6100" stop-opacity="0.301961"/>
			<stop offset="0.660000" stop-color="#EA6100" stop-opacity="0.000000"/>
		</linearGradient>
		<linearGradient id="paint_linear_1_1018_0" x1="29.232250" y1="18.725500" x2="31.068378" y2="26.766249" gradientUnits="userSpaceOnUse">
			<stop stop-color="#EA6100" stop-opacity="0.301961"/>
			<stop offset="0.660000" stop-color="#EA6100" stop-opacity="0.000000"/>
		</linearGradient>
		<linearGradient id="paint_linear_1_1022_0" x1="17.667086" y1="21.877617" x2="24.229588" y2="18.044249" gradientUnits="userSpaceOnUse">
			<stop stop-color="#A52714" stop-opacity="0.600000"/>
			<stop offset="0.660000" stop-color="#A52714" stop-opacity="0.000000"/>
		</linearGradient>
		<radialGradient id="paint_radial_1_1023_0" cx="0.000000" cy="0.000000" r="1.000000" gradientUnits="userSpaceOnUse" gradientTransform="translate(25.522 19.4935) rotate(0) scale(10.5098 10.5097)">
			<stop stop-color="#3E2723" stop-opacity="0.200000"/>
			<stop offset="1.000000" stop-color="#3E2723" stop-opacity="0.000000"/>
		</radialGradient>
		<linearGradient id="paint_linear_1_1027_0" x1="27.858997" y1="33.061932" x2="20.567249" y2="28.791182" gradientUnits="userSpaceOnUse">
			<stop stop-color="#055524" stop-opacity="0.400000"/>
			<stop offset="0.330000" stop-color="#055524" stop-opacity="0.000000"/>
		</linearGradient>
		<radialGradient id="paint_radial_1_1028_0" cx="0.000000" cy="0.000000" r="1.000000" gradientUnits="userSpaceOnUse" gradientTransform="translate(16.7343 18.5649) rotate(0) scale(9.7555 9.7555)">
			<stop stop-color="#3E2723" stop-opacity="0.200000"/>
			<stop offset="1.000000" stop-color="#3E2723" stop-opacity="0.000000"/>
		</radialGradient>
		<radialGradient id="paint_radial_1_1029_0" cx="0.000000" cy="0.000000" r="1.000000" gradientUnits="userSpaceOnUse" gradientTransform="translate(25.9805 24.5172) rotate(0) scale(10.9837 10.9837)">
			<stop stop-color="#263238" stop-opacity="0.200000"/>
			<stop offset="1.000000" stop-color="#263238" stop-opacity="0.000000"/>
		</radialGradient>
		<radialGradient id="paint_radial_1_1041_0" cx="0.000000" cy="0.000000" r="1.000000" gradientUnits="userSpaceOnUse" gradientTransform="translate(18.2857 16.5018) rotate(0) scale(22.0933 22.0933)">
			<stop stop-color="#FFFFFF" stop-opacity="0.101961"/>
			<stop offset="1.000000" stop-color="#FFFFFF" stop-opacity="0.000000"/>
		</radialGradient>
	</defs>
	<g filter="url(#filter_1_1001_dd)">
		<rect id="Rectangle" x="2.000000" y="1.500000" rx="9.000000" width="207.000000" height="47.000000" fill="#FFFFFF" fill-opacity="1.000000"/>
	</g>
	<path id="Chrome Extension" d="M59.9219 26.2373Q59.7725 28.3027 58.397 29.4893Q57.0215 30.6758 54.7715 30.6758Q52.3105 30.6758 50.8999 29.019Q49.4893 27.3623 49.4893 24.4707L49.4893 23.6885Q49.4893 21.8428 50.1396 20.4365Q50.79 19.0303 51.9985 18.2788Q53.207 17.5273 54.8066 17.5273Q57.0215 17.5273 58.375 18.7139Q59.7285 19.9004 59.9395 22.0449L57.3027 22.0449Q57.2061 20.8057 56.6128 20.2476Q56.0195 19.6895 54.8066 19.6895Q53.4883 19.6895 52.8335 20.6343Q52.1787 21.5791 52.1611 23.5654L52.1611 24.5322Q52.1611 26.6064 52.7896 27.5645Q53.418 28.5225 54.7715 28.5225Q55.9932 28.5225 56.5952 27.9644Q57.1973 27.4062 57.2852 26.2373L59.9219 26.2373ZM63.9648 22.0273Q64.9756 20.8145 66.5049 20.8145Q69.5986 20.8145 69.6426 24.4092L69.6426 30.5L67.1025 30.5L67.1025 24.4795Q67.1025 23.6621 66.751 23.271Q66.3994 22.8799 65.582 22.8799Q64.4658 22.8799 63.9648 23.7412L63.9648 30.5L61.4248 30.5L61.4248 17L63.9648 17L63.9648 22.0273ZM76.9023 23.3721Q76.3838 23.3018 75.9883 23.3018Q74.5469 23.3018 74.0986 24.2773L74.0986 30.5L71.5586 30.5L71.5586 20.9902L73.958 20.9902L74.0283 22.124Q74.793 20.8145 76.1465 20.8145Q76.5684 20.8145 76.9375 20.9287L76.9023 23.3721ZM77.4121 25.6572Q77.4121 24.2422 77.957 23.1348Q78.502 22.0273 79.5259 21.4209Q80.5498 20.8145 81.9033 20.8145Q83.8281 20.8145 85.0454 21.9922Q86.2627 23.1699 86.4033 25.1914L86.4209 25.8418Q86.4209 28.0303 85.1992 29.353Q83.9775 30.6758 81.9209 30.6758Q79.8643 30.6758 78.6382 29.3574Q77.4121 28.0391 77.4121 25.7715L77.4121 25.6572ZM79.9521 25.8418Q79.9521 27.1953 80.4619 27.9116Q80.9717 28.6279 81.9209 28.6279Q82.8438 28.6279 83.3623 27.9204Q83.8809 27.2129 83.8809 25.6572Q83.8809 24.3301 83.3623 23.6006Q82.8438 22.8711 81.9033 22.8711Q80.9717 22.8711 80.4619 23.5962Q79.9521 24.3213 79.9521 25.8418ZM90.3672 20.9902L90.4463 22.0537Q91.457 20.8145 93.1797 20.8145Q95.0166 20.8145 95.7021 22.2646Q96.7041 20.8145 98.5586 20.8145Q100.105 20.8145 100.861 21.7153Q101.617 22.6162 101.617 24.4268L101.617 30.5L99.0684 30.5L99.0684 24.4355Q99.0684 23.627 98.752 23.2534Q98.4355 22.8799 97.6357 22.8799Q96.4932 22.8799 96.0537 23.9697L96.0625 30.5L93.5225 30.5L93.5225 24.4443Q93.5225 23.6182 93.1973 23.249Q92.8721 22.8799 92.0898 22.8799Q91.0088 22.8799 90.5254 23.7764L90.5254 30.5L87.9854 30.5L87.9854 20.9902L90.3672 20.9902ZM107.945 30.6758Q105.854 30.6758 104.54 29.3926Q103.226 28.1094 103.226 25.9736L103.226 25.7275Q103.226 24.2949 103.779 23.1655Q104.333 22.0361 105.348 21.4253Q106.363 20.8145 107.664 20.8145Q109.615 20.8145 110.736 22.0449Q111.856 23.2754 111.856 25.5342L111.856 26.5713L105.801 26.5713Q105.924 27.5029 106.543 28.0654Q107.163 28.6279 108.112 28.6279Q109.58 28.6279 110.406 27.5645L111.654 28.9619Q111.083 29.7705 110.107 30.2231Q109.132 30.6758 107.945 30.6758ZM107.655 22.8711Q106.899 22.8711 106.429 23.3809Q105.959 23.8906 105.827 24.8398L109.36 24.8398L109.36 24.6377Q109.343 23.7939 108.903 23.3325Q108.464 22.8711 107.655 22.8711ZM125.646 24.9541L120.584 24.9541L120.584 28.3818L126.525 28.3818L126.525 30.5L117.947 30.5L117.947 17.7031L126.508 17.7031L126.508 19.8389L120.584 19.8389L120.584 22.8887L125.646 22.8887L125.646 24.9541ZM131.526 23.8291L133.126 20.9902L135.842 20.9902L133.135 25.6484L135.956 30.5L133.231 30.5L131.535 27.5117L129.848 30.5L127.114 30.5L129.936 25.6484L127.237 20.9902L129.962 20.9902L131.526 23.8291ZM140.104 18.6523L140.104 20.9902L141.73 20.9902L141.73 22.8535L140.104 22.8535L140.104 27.5996Q140.104 28.127 140.307 28.3555Q140.509 28.584 141.08 28.584Q141.502 28.584 141.827 28.5225L141.827 30.4473Q141.08 30.6758 140.289 30.6758Q137.617 30.6758 137.564 27.9775L137.564 22.8535L136.176 22.8535L136.176 20.9902L137.564 20.9902L137.564 18.6523L140.104 18.6523ZM147.522 30.6758Q145.431 30.6758 144.117 29.3926Q142.803 28.1094 142.803 25.9736L142.803 25.7275Q142.803 24.2949 143.356 23.1655Q143.91 22.0361 144.925 21.4253Q145.94 20.8145 147.241 20.8145Q149.192 20.8145 150.313 22.0449Q151.434 23.2754 151.434 25.5342L151.434 26.5713L145.378 26.5713Q145.501 27.5029 146.121 28.0654Q146.74 28.6279 147.689 28.6279Q149.157 28.6279 149.983 27.5645L151.231 28.9619Q150.66 29.7705 149.685 30.2231Q148.709 30.6758 147.522 30.6758ZM147.232 22.8711Q146.477 22.8711 146.006 23.3809Q145.536 23.8906 145.404 24.8398L148.938 24.8398L148.938 24.6377Q148.92 23.7939 148.48 23.3325Q148.041 22.8711 147.232 22.8711ZM155.213 20.9902L155.292 22.0889Q156.312 20.8145 158.025 20.8145Q159.537 20.8145 160.275 21.7021Q161.014 22.5898 161.031 24.3564L161.031 30.5L158.491 30.5L158.491 24.418Q158.491 23.6094 158.14 23.2446Q157.788 22.8799 156.971 22.8799Q155.898 22.8799 155.362 23.7939L155.362 30.5L152.822 30.5L152.822 20.9902L155.213 20.9902ZM168.106 27.8721Q168.106 27.4062 167.645 27.1382Q167.184 26.8701 166.164 26.6592Q162.771 25.9473 162.771 23.7764Q162.771 22.5107 163.822 21.6626Q164.872 20.8145 166.568 20.8145Q168.379 20.8145 169.464 21.667Q170.55 22.5195 170.55 23.8818L168.01 23.8818Q168.01 23.3369 167.658 22.981Q167.307 22.625 166.56 22.625Q165.918 22.625 165.566 22.915Q165.215 23.2051 165.215 23.6533Q165.215 24.0752 165.615 24.3345Q166.015 24.5938 166.964 24.7827Q167.913 24.9717 168.563 25.209Q170.576 25.9473 170.576 27.7666Q170.576 29.0674 169.46 29.8716Q168.344 30.6758 166.577 30.6758Q165.382 30.6758 164.455 30.2495Q163.527 29.8232 163 29.0806Q162.473 28.3379 162.473 27.4766L164.881 27.4766Q164.916 28.1533 165.382 28.5137Q165.848 28.874 166.63 28.874Q167.359 28.874 167.733 28.5972Q168.106 28.3203 168.106 27.8721ZM174.892 30.5L172.343 30.5L172.343 20.9902L174.892 20.9902L174.892 30.5ZM172.193 18.5293Q172.193 17.958 172.576 17.5889Q172.958 17.2197 173.617 17.2197Q174.268 17.2197 174.654 17.5889Q175.041 17.958 175.041 18.5293Q175.041 19.1094 174.65 19.4785Q174.259 19.8477 173.617 19.8477Q172.976 19.8477 172.584 19.4785Q172.193 19.1094 172.193 18.5293ZM176.588 25.6572Q176.588 24.2422 177.133 23.1348Q177.678 22.0273 178.702 21.4209Q179.726 20.8145 181.079 20.8145Q183.004 20.8145 184.221 21.9922Q185.438 23.1699 185.579 25.1914L185.597 25.8418Q185.597 28.0303 184.375 29.353Q183.153 30.6758 181.097 30.6758Q179.04 30.6758 177.814 29.3574Q176.588 28.0391 176.588 25.7715L176.588 25.6572ZM179.128 25.8418Q179.128 27.1953 179.638 27.9116Q180.147 28.6279 181.097 28.6279Q182.02 28.6279 182.538 27.9204Q183.057 27.2129 183.057 25.6572Q183.057 24.3301 182.538 23.6006Q182.02 22.8711 181.079 22.8711Q180.147 22.8711 179.638 23.5962Q179.128 24.3213 179.128 25.8418ZM189.499 20.9902L189.578 22.0889Q190.598 20.8145 192.312 20.8145Q193.823 20.8145 194.562 21.7021Q195.3 22.5898 195.317 24.3564L195.317 30.5L192.777 30.5L192.777 24.418Q192.777 23.6094 192.426 23.2446Q192.074 22.8799 191.257 22.8799Q190.185 22.8799 189.648 23.7939L189.648 30.5L187.108 30.5L187.108 20.9902L189.499 20.9902Z" fill="#12100C" fill-opacity="1.000000" fill-rule="evenodd"/>
	<g clip-path="url(#clip1_1003)">
		<path id="Vector" d="M16.7462 13.5L16.7462 27L21.67 27L25.9999 19.5L36.9999 19.5L36.9999 13.5L16.7462 13.5Z" fill="#DB4437" fill-opacity="1.000000" fill-rule="nonzero"/>
		<path id="Vector" d="M16.7462 13.5L16.7462 27L21.67 27L25.9999 19.5L36.9999 19.5L36.9999 13.5L16.7462 13.5Z" fill="url(#paint_linear_1_1006_0)" fill-opacity="1.000000" fill-rule="nonzero"/>
		<path id="Vector" d="M21.7888 26.9563L16.81 18.4175L16.7375 18.5425L21.68 27.0176L21.7888 26.9563Z" fill="#3E2723" fill-opacity="0.150000" fill-rule="nonzero"/>
		<path id="Vector" d="M15 35.5L25.4713 35.5L30.3312 30.6401L30.3312 27L21.67 27L15 15.5601L15 35.5Z" fill="#0F9D58" fill-opacity="1.000000" fill-rule="nonzero"/>
		<path id="Vector" d="M15 35.5L25.4713 35.5L30.3312 30.6401L30.3312 27L21.67 27L15 15.5601L15 35.5Z" fill="url(#paint_linear_1_1010_0)" fill-opacity="1.000000" fill-rule="nonzero"/>
		<path id="Vector" d="M30.23 27.1663L30.1263 27.1062L25.3275 35.5L25.4713 35.5L30.2338 27.1699L30.23 27.1663Z" fill="#263238" fill-opacity="0.150000" fill-rule="nonzero"/>
		<path id="Vector" d="M26 19.5L30.3312 27L25.4713 35.5L37 35.5L37 19.5L26 19.5Z" fill="#FFCD40" fill-opacity="1.000000" fill-rule="nonzero"/>
		<path id="Vector" d="M26 19.5L30.3312 27L25.4713 35.5L37 35.5L37 19.5L26 19.5Z" fill="url(#paint_linear_1_1015_0)" fill-opacity="1.000000" fill-rule="nonzero"/>
		<path id="Vector" d="M26 19.5L30.3312 27L25.4713 35.5L37 35.5L37 19.5L26 19.5Z" fill="#FFCD40" fill-opacity="1.000000" fill-rule="nonzero"/>
		<path id="Vector" d="M26 19.5L30.3312 27L25.4713 35.5L37 35.5L37 19.5L26 19.5Z" fill="url(#paint_linear_1_1018_0)" fill-opacity="1.000000" fill-rule="nonzero"/>
		<path id="Vector" d="M16.7462 13.5L16.7462 27L21.67 27L25.9999 19.5L36.9999 19.5L36.9999 13.5L16.7462 13.5Z" fill="#DB4437" fill-opacity="1.000000" fill-rule="nonzero"/>
		<path id="Vector" d="M16.7462 13.5L16.7462 27L21.67 27L25.9999 19.5L36.9999 19.5L36.9999 13.5L16.7462 13.5Z" fill="url(#paint_linear_1_1022_0)" fill-opacity="1.000000" fill-rule="nonzero"/>
		<path id="Vector" d="M26 19.5L26 22.1187L35.8 19.5L26 19.5Z" fill="url(#paint_radial_1_1023_0)" fill-opacity="1.000000" fill-rule="nonzero"/>
		<path id="Vector" d="M15 35.5L25.4713 35.5L30.3312 30.6401L30.3312 27L21.67 27L15 15.5601L15 35.5Z" fill="#0F9D58" fill-opacity="1.000000" fill-rule="nonzero"/>
		<path id="Vector" d="M15 35.5L25.4713 35.5L30.3312 30.6401L30.3312 27L21.67 27L15 15.5601L15 35.5Z" fill="url(#paint_linear_1_1027_0)" fill-opacity="1.000000" fill-rule="nonzero"/>
		<path id="Vector" d="M16.7462 18.5562L23.9025 25.7112L21.67 27L16.7462 18.5562Z" fill="url(#paint_radial_1_1028_0)" fill-opacity="1.000000" fill-rule="nonzero"/>
		<path id="Vector" d="M25.4788 35.4861L28.0988 25.7112L30.3312 27L25.4788 35.4861Z" fill="url(#paint_radial_1_1029_0)" fill-opacity="1.000000" fill-rule="nonzero"/>
		<path id="Vector" d="M31 24.5C31 27.2615 28.7614 29.5 26 29.5C23.2386 29.5 21 27.2615 21 24.5C21 21.7385 23.2386 19.5 26 19.5C28.7614 19.5 31 21.7385 31 24.5Z" fill="#F1F1F1" fill-opacity="1.000000" fill-rule="evenodd"/>
		<path id="Vector" d="M30 24.5C30 26.7092 28.2092 28.5 26 28.5C23.7908 28.5 22 26.7092 22 24.5C22 22.2908 23.7908 20.5 26 20.5C28.2092 20.5 30 22.2908 30 24.5Z" fill="#4285F4" fill-opacity="1.000000" fill-rule="evenodd"/>
		<path id="Vector" d="M26 19.375C23.2388 19.375 21 21.6138 21 24.375L21 24.5C21 21.7388 23.2388 19.5 26 19.5L37 19.5L37 19.375L26 19.375Z" fill="#3E2723" fill-opacity="0.200000" fill-rule="nonzero"/>
		<path id="Vector" d="M30.325 27C29.46 28.4927 27.8488 29.5 26 29.5C24.15 29.5 22.5388 28.4927 21.6738 27L21.6688 27L15 15.5601L15 15.6851L21.67 27.125L21.675 27.125C22.54 28.6177 24.1512 29.625 26.0012 29.625C27.85 29.625 29.4612 28.6189 30.3262 27.125L30.3325 27.125L30.3325 27L30.325 27Z" fill="#FFFFFF" fill-opacity="0.100000" fill-rule="nonzero"/>
		<g opacity="0.100000">
			<path id="Vector" d="M26.125 19.5C26.1038 19.5 26.0837 19.5024 26.0625 19.5037C28.795 19.5376 31 21.76 31 24.5C31 27.24 28.795 29.4624 26.0625 29.4963C26.0837 29.4963 26.1038 29.5 26.125 29.5C28.8862 29.5 31.125 27.2612 31.125 24.5C31.125 21.7388 28.8862 19.5 26.125 19.5Z" fill="#3E2723" fill-opacity="1.000000" fill-rule="nonzero"/>
		</g>
		<path id="Vector" d="M30.375 27.1665C30.8 26.4314 31.0463 25.5813 31.0463 24.6714C31.0463 24.1438 30.9637 23.6365 30.8125 23.1602C30.9313 23.5876 31 24.0364 31 24.5015C31 25.4114 30.7538 26.2615 30.3287 26.9963L30.3312 27.0015L25.4713 35.5015L25.6163 35.5015L30.3775 27.1714L30.375 27.1665Z" fill="#FFFFFF" fill-opacity="0.200000" fill-rule="nonzero"/>
		<path id="Vector" d="M26 13.625C32.0538 13.625 36.965 18.5164 36.9988 24.5625C36.9988 24.5413 37 24.5212 37 24.5C37 18.425 32.075 13.5 26 13.5C19.925 13.5 15 18.425 15 24.5C15 24.5212 15.0012 24.5413 15.0012 24.5625C15.035 18.5164 19.9462 13.625 26 13.625Z" fill="#FFFFFF" fill-opacity="0.200000" fill-rule="nonzero"/>
		<path id="Vector" d="M26 35.375C32.0538 35.375 36.965 30.4836 36.9988 24.4375C36.9988 24.4587 37 24.4788 37 24.5C37 30.575 32.075 35.5 26 35.5C19.925 35.5 15 30.575 15 24.5C15 24.4788 15.0012 24.4587 15.0012 24.4375C15.035 30.4836 19.9462 35.375 26 35.375Z" fill="#3E2723" fill-opacity="0.150000" fill-rule="nonzero"/>
		<path id="Vector" d="M37 24.5C37 30.5752 32.0751 35.5 26 35.5C19.9249 35.5 15 30.5752 15 24.5C15 18.4248 19.9249 13.5 26 13.5C32.0751 13.5 37 18.4248 37 24.5Z" fill="url(#paint_radial_1_1041_0)" fill-opacity="1.000000" fill-rule="evenodd"/>
	</g>
	<rect id="Frame" width="206.000000" height="46.000000" transform="translate(2.500000 2.000000)" stroke="#000000" stroke-opacity="1.000000" stroke-width="1.000000"/>
</svg>
