<svg width="203.000000" height="51.000000" viewBox="0 0 203 51" fill="none" xmlns="http://www.w3.org/2000/svg" xmlns:xlink="http://www.w3.org/1999/xlink">
	<desc>
			Created with Pixso.
	</desc>
	<defs>
		<filter id="filter_1_1044_dd" x="0.000000" y="0.000000" width="203.000000" height="51.000000" filterUnits="userSpaceOnUse" color-interpolation-filters="sRGB">
			<feFlood flood-opacity="0" result="BackgroundImageFix"/>
			<feColorMatrix in="SourceAlpha" type="matrix" values="0 0 0 0 0 0 0 0 0 0 0 0 0 0 0 0 0 0 127 0" result="hardAlpha"/>
			<feOffset dx="0" dy="0.5"/>
			<feGaussianBlur stdDeviation="0.666667"/>
			<feComposite in2="hardAlpha" operator="out" k2="-1" k3="1"/>
			<feColorMatrix type="matrix" values="0 0 0 0 0 0 0 0 0 0 0 0 0 0 0 0 0 0 0.1 0"/>
			<feBlend mode="normal" in2="BackgroundImageFix" result="effect_dropShadow_1"/>
			<feBlend mode="normal" in="SourceGraphic" in2="effect_dropShadow_1" result="shape"/>
		</filter>
		<clipPath id="clip1_1046">
			<rect id="Frame" width="24.000000" height="24.000000" transform="translate(14.000000 12.500000)" fill="white" fill-opacity="0"/>
		</clipPath>
		<linearGradient id="paint_linear_1_1047_0" x1="34.948433" y1="16.102343" x2="16.247187" y2="34.145477" gradientUnits="userSpaceOnUse">
			<stop offset="0.050000" stop-color="#FFF44F"/>
			<stop offset="0.110000" stop-color="#FFE847"/>
			<stop offset="0.220000" stop-color="#FFC830"/>
			<stop offset="0.370000" stop-color="#FF980E"/>
			<stop offset="0.400000" stop-color="#FF8B16"/>
			<stop offset="0.460000" stop-color="#FF672A"/>
			<stop offset="0.530000" stop-color="#FF3647"/>
			<stop offset="0.700000" stop-color="#E31587"/>
		</linearGradient>
		<radialGradient id="paint_radial_1_1048_0" cx="0.000000" cy="0.000000" r="1.000000" gradientUnits="userSpaceOnUse" gradientTransform="translate(34.0841 15.081) rotate(0) scale(23.4848 23.4849)">
			<stop offset="0.130000" stop-color="#FFBD4F"/>
			<stop offset="0.190000" stop-color="#FFAC31"/>
			<stop offset="0.250000" stop-color="#FF9D17"/>
			<stop offset="0.280000" stop-color="#FF980E"/>
			<stop offset="0.400000" stop-color="#FF563B"/>
			<stop offset="0.470000" stop-color="#FF3750"/>
			<stop offset="0.710000" stop-color="#F5156C"/>
			<stop offset="0.780000" stop-color="#EB0878"/>
			<stop offset="0.860000" stop-color="#E50080"/>
		</radialGradient>
		<radialGradient id="paint_radial_1_1049_0" cx="0.000000" cy="0.000000" r="1.000000" gradientUnits="userSpaceOnUse" gradientTransform="translate(25.5027 24.682) rotate(0) scale(23.4848 23.4849)">
			<stop offset="0.300000" stop-color="#960E18"/>
			<stop offset="0.350000" stop-color="#B11927" stop-opacity="0.741176"/>
			<stop offset="0.430000" stop-color="#DB293D" stop-opacity="0.341176"/>
			<stop offset="0.500000" stop-color="#F5334B" stop-opacity="0.090196"/>
			<stop offset="0.530000" stop-color="#FF3750" stop-opacity="0.000000"/>
		</radialGradient>
		<radialGradient id="paint_radial_1_1050_0" cx="0.000000" cy="0.000000" r="1.000000" gradientUnits="userSpaceOnUse" gradientTransform="translate(28.3344 9.75137) rotate(0) scale(17.0138 17.0138)">
			<stop offset="0.130000" stop-color="#FFF44F"/>
			<stop offset="0.250000" stop-color="#FFDC3E"/>
			<stop offset="0.510000" stop-color="#FF9D12"/>
			<stop offset="0.530000" stop-color="#FF980E"/>
		</radialGradient>
		<radialGradient id="paint_radial_1_1051_0" cx="0.000000" cy="0.000000" r="1.000000" gradientUnits="userSpaceOnUse" gradientTransform="translate(22.9053 30.8164) rotate(0) scale(11.182 11.182)">
			<stop offset="0.350000" stop-color="#3A8EE6"/>
			<stop offset="0.470000" stop-color="#5C79F0"/>
			<stop offset="0.670000" stop-color="#9059FF"/>
			<stop offset="1.000000" stop-color="#C139E6"/>
		</radialGradient>
		<radialGradient id="paint_radial_1_1052_0" cx="0.000000" cy="0.000000" r="1.000000" gradientUnits="userSpaceOnUse" gradientTransform="translate(25.8399 21.8907) rotate(-13.8971) scale(5.9243 6.95965)">
			<stop offset="0.210000" stop-color="#9059FF" stop-opacity="0.000000"/>
			<stop offset="0.280000" stop-color="#8C4FF3" stop-opacity="0.058824"/>
			<stop offset="0.750000" stop-color="#7716A8" stop-opacity="0.450980"/>
			<stop offset="0.970000" stop-color="#6E008B" stop-opacity="0.600000"/>
		</radialGradient>
		<radialGradient id="paint_radial_1_1053_0" cx="0.000000" cy="0.000000" r="1.000000" gradientUnits="userSpaceOnUse" gradientTransform="translate(25.2059 14.12) rotate(0) scale(8.04469 8.04469)">
			<stop stop-color="#FFE226"/>
			<stop offset="0.120000" stop-color="#FFDB27"/>
			<stop offset="0.300000" stop-color="#FFC82A"/>
			<stop offset="0.500000" stop-color="#FFA930"/>
			<stop offset="0.730000" stop-color="#FF7E37"/>
			<stop offset="0.790000" stop-color="#FF7139"/>
		</radialGradient>
		<radialGradient id="paint_radial_1_1054_0" cx="0.000000" cy="0.000000" r="1.000000" gradientUnits="userSpaceOnUse" gradientTransform="translate(31.5294 9.0177) rotate(0) scale(34.3223 34.3223)">
			<stop offset="0.110000" stop-color="#FFF44F"/>
			<stop offset="0.460000" stop-color="#FF980E"/>
			<stop offset="0.620000" stop-color="#FF5634"/>
			<stop offset="0.720000" stop-color="#FF3647"/>
			<stop offset="0.900000" stop-color="#E31587"/>
		</radialGradient>
		<radialGradient id="paint_radial_1_1055_0" cx="0.000000" cy="0.000000" r="1.000000" gradientUnits="userSpaceOnUse" gradientTransform="translate(28.2117 12.7676) rotate(84.2321) scale(25.0176 16.4367)">
			<stop stop-color="#FFF44F"/>
			<stop offset="0.060000" stop-color="#FFE847"/>
			<stop offset="0.170000" stop-color="#FFC830"/>
			<stop offset="0.300000" stop-color="#FF980E"/>
			<stop offset="0.360000" stop-color="#FF8B16"/>
			<stop offset="0.450000" stop-color="#FF672A"/>
			<stop offset="0.570000" stop-color="#FF3647"/>
			<stop offset="0.740000" stop-color="#E31587"/>
		</radialGradient>
		<radialGradient id="paint_radial_1_1056_0" cx="0.000000" cy="0.000000" r="1.000000" gradientUnits="userSpaceOnUse" gradientTransform="translate(25.0166 17.0995) rotate(0) scale(21.4275 21.4275)">
			<stop offset="0.140000" stop-color="#FFF44F"/>
			<stop offset="0.480000" stop-color="#FF980E"/>
			<stop offset="0.590000" stop-color="#FF5634"/>
			<stop offset="0.660000" stop-color="#FF3647"/>
			<stop offset="0.900000" stop-color="#E31587"/>
		</radialGradient>
		<radialGradient id="paint_radial_1_1057_0" cx="0.000000" cy="0.000000" r="1.000000" gradientUnits="userSpaceOnUse" gradientTransform="translate(30.673 18.3538) rotate(0) scale(23.4525 23.4525)">
			<stop offset="0.090000" stop-color="#FFF44F"/>
			<stop offset="0.230000" stop-color="#FFE141"/>
			<stop offset="0.510000" stop-color="#FFAF1E"/>
			<stop offset="0.630000" stop-color="#FF980E"/>
		</radialGradient>
		<linearGradient id="paint_linear_1_1058_0" x1="34.723438" y1="16.005783" x2="18.811258" y2="31.918449" gradientUnits="userSpaceOnUse">
			<stop offset="0.170000" stop-color="#FFF44F" stop-opacity="0.800000"/>
			<stop offset="0.270000" stop-color="#FFF44F" stop-opacity="0.631373"/>
			<stop offset="0.490000" stop-color="#FFF44F" stop-opacity="0.219608"/>
			<stop offset="0.600000" stop-color="#FFF44F" stop-opacity="0.000000"/>
		</linearGradient>
	</defs>
	<g filter="url(#filter_1_1044_dd)">
		<rect id="Rectangle" x="2.000000" y="1.500000" rx="9.000000" width="199.000000" height="47.000000" fill="#FFFFFF" fill-opacity="1.000000"/>
	</g>
	<path id="Firefox Extension" d="M57.1875 25.2705L52.125 25.2705L52.125 30.5L49.4883 30.5L49.4883 17.7031L57.8203 17.7031L57.8203 19.8389L52.125 19.8389L52.125 23.1436L57.1875 23.1436L57.1875 25.2705ZM61.8633 30.5L59.3145 30.5L59.3145 20.9902L61.8633 20.9902L61.8633 30.5ZM59.165 18.5293Q59.165 17.958 59.5474 17.5889Q59.9297 17.2197 60.5889 17.2197Q61.2393 17.2197 61.626 17.5889Q62.0127 17.958 62.0127 18.5293Q62.0127 19.1094 61.6216 19.4785Q61.2305 19.8477 60.5889 19.8477Q59.9473 19.8477 59.5562 19.4785Q59.165 19.1094 59.165 18.5293ZM69.2988 23.3721Q68.7803 23.3018 68.3848 23.3018Q66.9434 23.3018 66.4951 24.2773L66.4951 30.5L63.9551 30.5L63.9551 20.9902L66.3545 20.9902L66.4248 22.124Q67.1895 20.8145 68.543 20.8145Q68.9648 20.8145 69.334 20.9287L69.2988 23.3721ZM74.7305 30.6758Q72.6387 30.6758 71.3247 29.3926Q70.0107 28.1094 70.0107 25.9736L70.0107 25.7275Q70.0107 24.2949 70.5645 23.1655Q71.1182 22.0361 72.1333 21.4253Q73.1484 20.8145 74.4492 20.8145Q76.4004 20.8145 77.521 22.0449Q78.6416 23.2754 78.6416 25.5342L78.6416 26.5713L72.5859 26.5713Q72.709 27.5029 73.3286 28.0654Q73.9482 28.6279 74.8975 28.6279Q76.3652 28.6279 77.1914 27.5645L78.4395 28.9619Q77.8682 29.7705 76.8926 30.2231Q75.917 30.6758 74.7305 30.6758ZM74.4404 22.8711Q73.6846 22.8711 73.2144 23.3809Q72.7441 23.8906 72.6123 24.8398L76.1455 24.8398L76.1455 24.6377Q76.1279 23.7939 75.6885 23.3325Q75.249 22.8711 74.4404 22.8711ZM80.7773 30.5L80.7773 22.8535L79.3623 22.8535L79.3623 20.9902L80.7773 20.9902L80.7773 20.1816Q80.7773 18.582 81.6958 17.6987Q82.6143 16.8154 84.2666 16.8154Q84.7939 16.8154 85.5586 16.9912L85.5322 18.96Q85.2158 18.8809 84.7588 18.8809Q83.3262 18.8809 83.3262 20.2256L83.3262 20.9902L85.2158 20.9902L85.2158 22.8535L83.3262 22.8535L83.3262 30.5L80.7773 30.5ZM86.1387 25.6572Q86.1387 24.2422 86.6836 23.1348Q87.2285 22.0273 88.2524 21.4209Q89.2764 20.8145 90.6299 20.8145Q92.5547 20.8145 93.772 21.9922Q94.9893 23.1699 95.1299 25.1914L95.1475 25.8418Q95.1475 28.0303 93.9258 29.353Q92.7041 30.6758 90.6475 30.6758Q88.5908 30.6758 87.3647 29.3574Q86.1387 28.0391 86.1387 25.7715L86.1387 25.6572ZM88.6787 25.8418Q88.6787 27.1953 89.1885 27.9116Q89.6982 28.6279 90.6475 28.6279Q91.5703 28.6279 92.0889 27.9204Q92.6074 27.2129 92.6074 25.6572Q92.6074 24.3301 92.0889 23.6006Q91.5703 22.8711 90.6299 22.8711Q89.6982 22.8711 89.1885 23.5962Q88.6787 24.3213 88.6787 25.8418ZM100.148 23.8291L101.748 20.9902L104.464 20.9902L101.757 25.6484L104.578 30.5L101.854 30.5L100.157 27.5117L98.4697 30.5L95.7363 30.5L98.5576 25.6484L95.8594 20.9902L98.584 20.9902L100.148 23.8291ZM118.034 24.9541L112.972 24.9541L112.972 28.3818L118.913 28.3818L118.913 30.5L110.335 30.5L110.335 17.7031L118.896 17.7031L118.896 19.8389L112.972 19.8389L112.972 22.8887L118.034 22.8887L118.034 24.9541ZM123.914 23.8291L125.514 20.9902L128.229 20.9902L125.522 25.6484L128.344 30.5L125.619 30.5L123.923 27.5117L122.235 30.5L119.502 30.5L122.323 25.6484L119.625 20.9902L122.35 20.9902L123.914 23.8291ZM132.492 18.6523L132.492 20.9902L134.118 20.9902L134.118 22.8535L132.492 22.8535L132.492 27.5996Q132.492 28.127 132.694 28.3555Q132.896 28.584 133.468 28.584Q133.89 28.584 134.215 28.5225L134.215 30.4473Q133.468 30.6758 132.677 30.6758Q130.005 30.6758 129.952 27.9775L129.952 22.8535L128.563 22.8535L128.563 20.9902L129.952 20.9902L129.952 18.6523L132.492 18.6523ZM139.91 30.6758Q137.818 30.6758 136.504 29.3926Q135.19 28.1094 135.19 25.9736L135.19 25.7275Q135.19 24.2949 135.744 23.1655Q136.298 22.0361 137.313 21.4253Q138.328 20.8145 139.629 20.8145Q141.58 20.8145 142.701 22.0449Q143.821 23.2754 143.821 25.5342L143.821 26.5713L137.766 26.5713Q137.889 27.5029 138.508 28.0654Q139.128 28.6279 140.077 28.6279Q141.545 28.6279 142.371 27.5645L143.619 28.9619Q143.048 29.7705 142.072 30.2231Q141.097 30.6758 139.91 30.6758ZM139.62 22.8711Q138.864 22.8711 138.394 23.3809Q137.924 23.8906 137.792 24.8398L141.325 24.8398L141.325 24.6377Q141.308 23.7939 140.868 23.3325Q140.429 22.8711 139.62 22.8711ZM147.601 20.9902L147.68 22.0889Q148.699 20.8145 150.413 20.8145Q151.925 20.8145 152.663 21.7021Q153.401 22.5898 153.419 24.3564L153.419 30.5L150.879 30.5L150.879 24.418Q150.879 23.6094 150.527 23.2446Q150.176 22.8799 149.358 22.8799Q148.286 22.8799 147.75 23.7939L147.75 30.5L145.21 30.5L145.21 20.9902L147.601 20.9902ZM160.494 27.8721Q160.494 27.4062 160.033 27.1382Q159.571 26.8701 158.552 26.6592Q155.159 25.9473 155.159 23.7764Q155.159 22.5107 156.209 21.6626Q157.26 20.8145 158.956 20.8145Q160.767 20.8145 161.852 21.667Q162.938 22.5195 162.938 23.8818L160.397 23.8818Q160.397 23.3369 160.046 22.981Q159.694 22.625 158.947 22.625Q158.306 22.625 157.954 22.915Q157.603 23.2051 157.603 23.6533Q157.603 24.0752 158.002 24.3345Q158.402 24.5938 159.352 24.7827Q160.301 24.9717 160.951 25.209Q162.964 25.9473 162.964 27.7666Q162.964 29.0674 161.848 29.8716Q160.731 30.6758 158.965 30.6758Q157.77 30.6758 156.842 30.2495Q155.915 29.8232 155.388 29.0806Q154.86 28.3379 154.86 27.4766L157.269 27.4766Q157.304 28.1533 157.77 28.5137Q158.235 28.874 159.018 28.874Q159.747 28.874 160.121 28.5972Q160.494 28.3203 160.494 27.8721ZM167.279 30.5L164.73 30.5L164.73 20.9902L167.279 20.9902L167.279 30.5ZM164.581 18.5293Q164.581 17.958 164.963 17.5889Q165.346 17.2197 166.005 17.2197Q166.655 17.2197 167.042 17.5889Q167.429 17.958 167.429 18.5293Q167.429 19.1094 167.038 19.4785Q166.646 19.8477 166.005 19.8477Q165.363 19.8477 164.972 19.4785Q164.581 19.1094 164.581 18.5293ZM168.976 25.6572Q168.976 24.2422 169.521 23.1348Q170.065 22.0273 171.089 21.4209Q172.113 20.8145 173.467 20.8145Q175.392 20.8145 176.609 21.9922Q177.826 23.1699 177.967 25.1914L177.984 25.8418Q177.984 28.0303 176.763 29.353Q175.541 30.6758 173.484 30.6758Q171.428 30.6758 170.202 29.3574Q168.976 28.0391 168.976 25.7715L168.976 25.6572ZM171.516 25.8418Q171.516 27.1953 172.025 27.9116Q172.535 28.6279 173.484 28.6279Q174.407 28.6279 174.926 27.9204Q175.444 27.2129 175.444 25.6572Q175.444 24.3301 174.926 23.6006Q174.407 22.8711 173.467 22.8711Q172.535 22.8711 172.025 23.5962Q171.516 24.3213 171.516 25.8418ZM181.887 20.9902L181.966 22.0889Q182.985 20.8145 184.699 20.8145Q186.211 20.8145 186.949 21.7021Q187.688 22.5898 187.705 24.3564L187.705 30.5L185.165 30.5L185.165 24.418Q185.165 23.6094 184.813 23.2446Q184.462 22.8799 183.645 22.8799Q182.572 22.8799 182.036 23.7939L182.036 30.5L179.496 30.5L179.496 20.9902L181.887 20.9902Z" fill="#12100C" fill-opacity="1.000000" fill-rule="evenodd"/>
	<g clip-path="url(#clip1_1046)">
		<path id="Vector" d="M36.4395 20.2991C35.9501 19.1211 34.9583 17.8494 34.1797 17.4478C34.8134 18.6904 35.18 19.9368 35.3201 20.8667C35.3201 20.8667 35.3201 20.8733 35.3225 20.8855C34.0489 17.7102 31.8889 16.4294 30.125 13.6418C30.0355 13.5012 29.9464 13.3606 29.8592 13.2102C29.81 13.1252 29.7701 13.0483 29.7355 12.9758C29.6624 12.8347 29.6059 12.6858 29.5672 12.532C29.5675 12.5247 29.5651 12.5173 29.5604 12.5117C29.5557 12.5061 29.5491 12.5024 29.5419 12.5015C29.535 12.4995 29.5277 12.4995 29.5208 12.5015C29.5189 12.5022 29.5172 12.5034 29.5156 12.5046C29.5128 12.5046 29.51 12.5081 29.5072 12.5088L29.5119 12.5029C26.682 14.1604 25.722 17.2263 25.6339 18.7607C24.5031 18.8379 23.4218 19.2544 22.5312 19.9556C22.4382 19.8767 22.3408 19.8032 22.2397 19.7351C21.983 18.8367 21.9722 17.8857 22.2083 16.9817C21.051 17.509 20.1509 18.3411 19.4966 19.0774L19.4914 19.0774C19.0447 18.5117 19.0761 16.6455 19.1014 16.2561C19.0963 16.2317 18.7686 16.4263 18.7264 16.4558C18.3322 16.7371 17.9637 17.0525 17.6253 17.3989C17.2402 17.7893 16.8884 18.2112 16.5734 18.6604C15.8489 19.687 15.3351 20.8472 15.0617 22.0737C15.0566 22.0981 15.0519 22.1235 15.0467 22.1482C15.0256 22.2471 14.9492 22.7437 14.9356 22.8513L14.9356 22.8762C14.836 23.3892 14.774 23.9087 14.75 24.4307L14.75 24.4883C14.75 30.7095 19.7938 35.7532 26.015 35.7532C31.587 35.7532 36.2131 31.708 37.1192 26.3943C37.1379 26.2502 37.1534 26.105 37.1703 25.9597C37.3943 24.0276 37.1454 21.9968 36.4395 20.2991ZM23.4551 29.1172C23.5076 29.1421 23.5574 29.1697 23.6113 29.1941L23.6188 29.1987C23.5648 29.1726 23.51 29.1453 23.4556 29.1172L23.4551 29.1172ZM35.3234 20.8906L35.3234 20.8799L35.3234 20.8921L35.3234 20.8906Z" fill="url(#paint_linear_1_1047_0)" fill-opacity="1.000000" fill-rule="nonzero"/>
		<path id="Vector" d="M36.4395 20.2991C35.9501 19.1211 34.9583 17.8494 34.1797 17.4478C34.8134 18.6904 35.18 19.9368 35.3201 20.8667L35.3201 20.8899C36.3833 23.7717 35.8039 26.7024 34.9695 28.4929C33.6786 31.2632 30.5535 34.103 25.6611 33.9646C20.3797 33.8147 15.7236 29.8906 14.8541 24.7556C14.6956 23.9451 14.8541 23.5339 14.9338 22.8765C14.8367 23.3831 14.7997 23.5298 14.7514 24.4307L14.7514 24.4883C14.7514 30.7097 19.7952 35.7534 26.0164 35.7534C31.5884 35.7534 36.2145 31.708 37.1206 26.3943C37.1394 26.2505 37.1548 26.1052 37.1717 25.9597C37.3943 24.0276 37.1454 21.9971 36.4395 20.2991Z" fill="url(#paint_radial_1_1048_0)" fill-opacity="1.000000" fill-rule="nonzero"/>
		<path id="Vector" d="M36.4395 20.2991C35.9501 19.1211 34.9583 17.8494 34.1797 17.4478C34.8134 18.6904 35.18 19.9368 35.3201 20.8667L35.3201 20.8899C36.3833 23.7717 35.8039 26.7024 34.9695 28.4929C33.6786 31.2632 30.5535 34.103 25.6611 33.9646C20.3797 33.8147 15.7236 29.8906 14.8541 24.7556C14.6956 23.9451 14.8541 23.5339 14.9338 22.8765C14.8367 23.3831 14.7997 23.5298 14.7514 24.4307L14.7514 24.4883C14.7514 30.7097 19.7952 35.7534 26.0164 35.7534C31.5884 35.7534 36.2145 31.708 37.1206 26.3943C37.1394 26.2505 37.1548 26.1052 37.1717 25.9597C37.3943 24.0276 37.1454 21.9971 36.4395 20.2991Z" fill="url(#paint_radial_1_1049_0)" fill-opacity="1.000000" fill-rule="nonzero"/>
		<path id="Vector" d="M30.965 21.623C30.9898 21.6404 31.0118 21.6577 31.0353 21.675C30.7526 21.1729 30.4003 20.7134 29.9891 20.3101C26.4875 16.8083 29.0712 12.717 29.5067 12.509L29.5114 12.5029C26.6815 14.1604 25.7216 17.2266 25.6334 18.7607C25.7646 18.752 25.8954 18.7405 26.0291 18.7405C28.1407 18.7405 29.9802 19.9021 30.965 21.623Z" fill="url(#paint_radial_1_1050_0)" fill-opacity="1.000000" fill-rule="nonzero"/>
		<path id="Vector" d="M26.0361 22.322C26.0178 22.6033 25.0278 23.5691 24.6814 23.5691C21.478 23.5691 20.9581 25.5068 20.9581 25.5068C21.0988 27.1389 22.236 28.4829 23.6117 29.1941C23.6746 29.2263 23.7378 29.2554 23.7992 29.2844C23.9094 29.3313 24.02 29.3782 24.1302 29.4199C24.602 29.5864 25.0961 29.6812 25.5959 29.7012C31.2106 29.9646 32.2991 22.9878 28.2467 20.9619C29.2841 20.7812 30.3613 21.199 30.9626 21.6213C29.9783 19.9006 28.1384 18.739 26.0267 18.739C25.8931 18.739 25.7623 18.7502 25.6311 18.7593C24.5011 18.8374 23.4209 19.2544 22.5312 19.9553C22.7033 20.1013 22.8973 20.2952 23.3056 20.6975C24.0716 21.4531 26.0319 22.2307 26.0361 22.322Z" fill="url(#paint_radial_1_1051_0)" fill-opacity="1.000000" fill-rule="nonzero"/>
		<path id="Vector" d="M26.0361 22.322C26.0178 22.6033 25.0278 23.5691 24.6814 23.5691C21.478 23.5691 20.9581 25.5068 20.9581 25.5068C21.0988 27.1389 22.236 28.4829 23.6117 29.1941C23.6746 29.2263 23.7378 29.2554 23.7992 29.2844C23.9094 29.3313 24.02 29.3782 24.1302 29.4199C24.602 29.5864 25.0961 29.6812 25.5959 29.7012C31.2106 29.9646 32.2991 22.9878 28.2467 20.9619C29.2841 20.7812 30.3613 21.199 30.9626 21.6213C29.9783 19.9006 28.1384 18.739 26.0267 18.739C25.8931 18.739 25.7623 18.7502 25.6311 18.7593C24.5011 18.8374 23.4209 19.2544 22.5312 19.9553C22.7033 20.1013 22.8973 20.2952 23.3056 20.6975C24.0716 21.4531 26.0319 22.2307 26.0361 22.322Z" fill="url(#paint_radial_1_1052_0)" fill-opacity="1.000000" fill-rule="nonzero"/>
		<path id="Vector" d="M22.0076 19.5808C22.0991 19.6399 22.1741 19.6897 22.242 19.7351C21.9854 18.8367 21.9745 17.8857 22.2106 16.9817C21.0533 17.509 20.1533 18.3411 19.4989 19.0774C19.5519 19.0762 21.1859 19.0466 22.0076 19.5808Z" fill="url(#paint_radial_1_1053_0)" fill-opacity="1.000000" fill-rule="nonzero"/>
		<path id="Vector" d="M14.8541 24.7556C15.7236 29.8906 20.3797 33.8145 25.6649 33.9646C30.5573 34.1028 33.6805 31.2632 34.9733 28.4929C35.8077 26.7017 36.3871 23.7715 35.3239 20.8896L35.3239 20.8682C35.3239 20.8711 35.3239 20.8748 35.3263 20.887C35.7256 23.4963 34.3986 26.0244 32.3239 27.7339C32.3218 27.7388 32.3198 27.7437 32.3179 27.7485C28.2749 31.0405 24.4063 29.7346 23.623 29.2017C23.5686 29.1753 23.5138 29.1482 23.4594 29.1201C21.1021 27.9951 20.1285 25.8457 20.3371 24.0042C18.3472 24.0042 17.6685 22.325 17.6685 22.325C17.6685 22.325 19.4553 21.051 21.8104 22.1592C23.9915 23.1855 26.0399 22.3254 26.0399 22.325C26.0356 22.2336 24.0754 21.4536 23.3108 20.7004C22.9025 20.2981 22.7085 20.104 22.5364 19.9583C22.4434 19.8796 22.346 19.8062 22.2449 19.738C22.1779 19.6912 22.1042 19.6443 22.0105 19.5837C21.1888 19.0493 19.5547 19.0789 19.5008 19.0803L19.4957 19.0803C19.049 18.5146 19.0803 16.6484 19.1057 16.259C19.1005 16.2346 18.7728 16.4292 18.7307 16.4587C18.3365 16.7397 17.968 17.0554 17.6296 17.4019C17.2444 17.7922 16.8926 18.2141 16.5777 18.6631C15.8532 19.6899 15.3394 20.8501 15.066 22.0767C15.0571 22.0981 14.6563 23.8479 14.8541 24.7556Z" fill="url(#paint_radial_1_1054_0)" fill-opacity="1.000000" fill-rule="nonzero"/>
		<path id="Vector" d="M29.989 20.3098C30.4003 20.7134 30.7526 21.1729 31.0353 21.6748C31.0939 21.7188 31.1502 21.7659 31.204 21.8154C33.7578 24.1667 32.4219 27.4954 32.3201 27.7344C34.3948 26.0249 35.7219 23.4968 35.3224 20.8875C34.0489 17.7102 31.8889 16.4294 30.125 13.6418C30.0355 13.5012 29.9464 13.3606 29.8592 13.2102C29.81 13.1252 29.7701 13.0483 29.7354 12.9758C29.6624 12.8347 29.6059 12.6858 29.5671 12.532C29.5674 12.5247 29.5651 12.5173 29.5604 12.5117C29.5557 12.5061 29.5491 12.5024 29.5419 12.5015C29.5349 12.4995 29.5276 12.4995 29.5208 12.5015C29.5189 12.5022 29.5172 12.5034 29.5156 12.5046C29.5128 12.5046 29.5099 12.5081 29.5071 12.5088C29.0712 12.717 26.4875 16.8083 29.989 20.3098Z" fill="url(#paint_radial_1_1055_0)" fill-opacity="1.000000" fill-rule="nonzero"/>
		<path id="Vector" d="M31.2032 21.8132C31.1493 21.7637 31.093 21.7166 31.0344 21.6726C31.0114 21.6553 30.9875 21.6379 30.9641 21.6206C30.3627 21.1987 29.2855 20.7805 28.2482 20.9612C32.3 22.9871 31.212 29.9639 25.5974 29.7004C25.0975 29.6804 24.6034 29.5857 24.1316 29.4192C24.0214 29.3779 23.9108 29.3325 23.8007 29.2837C23.7369 29.2546 23.6736 29.2256 23.6132 29.1934L23.6207 29.198C24.4039 29.7324 28.2725 31.0383 32.3155 27.7449C32.3155 27.7449 32.3179 27.7388 32.3216 27.7302C32.4219 27.4954 33.7579 24.1667 31.2032 21.8132Z" fill="url(#paint_radial_1_1056_0)" fill-opacity="1.000000" fill-rule="nonzero"/>
		<path id="Vector" d="M20.9581 25.5068C20.9581 25.5068 21.478 23.5691 24.6814 23.5691C25.0278 23.5691 26.0178 22.6025 26.0361 22.3223C26.0544 22.042 23.9877 23.1829 21.8066 22.1562C19.4515 21.0481 17.6647 22.3223 17.6647 22.3223C17.6647 22.3223 18.3434 24.0012 20.3333 24.0012C20.1247 25.843 21.0983 27.9902 23.4556 29.1172C23.5081 29.1421 23.5578 29.1697 23.6117 29.1941C22.2359 28.4844 21.1002 27.1392 20.9581 25.5068Z" fill="url(#paint_radial_1_1057_0)" fill-opacity="1.000000" fill-rule="nonzero"/>
		<path id="Vector" d="M36.4395 20.2991C35.9501 19.1211 34.9583 17.8494 34.1797 17.4478C34.8134 18.6904 35.18 19.9368 35.3201 20.8667C35.3201 20.8667 35.3201 20.8733 35.3225 20.8855C34.0489 17.7102 31.8889 16.4294 30.125 13.6418C30.0355 13.5012 29.9464 13.3606 29.8592 13.2102C29.81 13.1252 29.7701 13.0483 29.7355 12.9758C29.6624 12.8347 29.6059 12.6858 29.5672 12.532C29.5675 12.5247 29.5651 12.5173 29.5604 12.5117C29.5557 12.5061 29.5491 12.5024 29.5419 12.5015C29.535 12.4995 29.5277 12.4995 29.5208 12.5015C29.5189 12.5022 29.5172 12.5034 29.5156 12.5046C29.5128 12.5046 29.51 12.5081 29.5072 12.5088L29.5119 12.5029C26.682 14.1604 25.722 17.2263 25.6339 18.7607C25.7651 18.7517 25.8959 18.7405 26.0295 18.7405C28.1412 18.7405 29.9807 19.9021 30.9655 21.6228C30.3641 21.2009 29.2869 20.7827 28.2495 20.9634C32.3014 22.9893 31.2134 29.9661 25.5988 29.7026C25.0989 29.6826 24.6048 29.5879 24.133 29.4214C24.0228 29.3801 23.9122 29.3347 23.802 29.2859C23.7383 29.2568 23.675 29.2278 23.6145 29.1956L23.622 29.2002C23.5676 29.1738 23.5128 29.1467 23.4584 29.1187C23.5109 29.1436 23.5606 29.1711 23.6145 29.1956C22.236 28.4844 21.1002 27.1392 20.9581 25.5068C20.9581 25.5068 21.478 23.5691 24.6814 23.5691C25.0278 23.5691 26.0178 22.6025 26.0361 22.3223C26.0319 22.2307 24.0715 21.4507 23.307 20.6975C22.8987 20.2954 22.7047 20.1013 22.5327 19.9556C22.4396 19.8767 22.3422 19.8032 22.2411 19.7351C21.9844 18.8367 21.9736 17.8857 22.2097 16.9817C21.0524 17.509 20.1523 18.3411 19.498 19.0774L19.4928 19.0774C19.0461 18.5117 19.0775 16.6455 19.1028 16.2561C19.0977 16.2317 18.77 16.4263 18.7278 16.4558C18.3336 16.7371 17.9651 17.0525 17.6267 17.3989C17.2416 17.7893 16.8898 18.2112 16.5748 18.6604C15.8503 19.687 15.3365 20.8472 15.0631 22.0737C15.058 22.0981 15.0533 22.1235 15.0481 22.1482C15.027 22.2471 14.9314 22.7507 14.9183 22.8584C14.8305 23.3787 14.7743 23.9036 14.75 24.4307L14.75 24.4883C14.75 30.7095 19.7938 35.7532 26.015 35.7532C31.587 35.7532 36.2131 31.708 37.1192 26.3943C37.1379 26.2502 37.1534 26.105 37.1703 25.9597C37.3943 24.0276 37.1454 21.9968 36.4395 20.2991ZM35.322 20.8774L35.322 20.8896L35.322 20.8774Z" fill="url(#paint_linear_1_1058_0)" fill-opacity="1.000000" fill-rule="nonzero"/>
	</g>
	<rect id="Frame" width="198.000000" height="46.000000" transform="translate(2.500000 2.000000)" stroke="#000000" stroke-opacity="1.000000" stroke-width="1.000000"/>
</svg>
