<svg width="28.000000" height="28.000000" viewBox="0 0 28 28" fill="none" xmlns="http://www.w3.org/2000/svg" xmlns:xlink="http://www.w3.org/1999/xlink">
	<desc>
			Created with Pixso.
	</desc>
	<defs>
		<clipPath id="clip1_855">
			<rect id="Frame" width="28.000000" height="28.000000" fill="white" fill-opacity="0"/>
		</clipPath>
	</defs>
	<rect id="Frame" width="28.000000" height="28.000000" fill="#FFFFFF" fill-opacity="0"/>
	<g clip-path="url(#clip1_855)">
		<path id="Vector" d="M14.0676 0.466797C10.7158 0.467773 7.47754 1.6416 4.95117 3.771C2.39584 5.92578 0.707214 8.88184 0.181519 12.1206C-0.35434 15.3706 0.300629 18.6992 2.03339 21.5322C3.74432 24.3369 6.43686 26.458 9.62427 27.5112C10.332 27.6392 10.5821 27.2041 10.5821 26.8379L10.5821 24.4785C6.65726 25.3213 5.82883 22.6128 5.82883 22.6128C5.57208 21.7783 5.01932 21.0576 4.26758 20.5771C2.9989 19.7251 4.37091 19.7251 4.37091 19.7251C4.81503 19.7876 5.23987 19.9492 5.6116 20.1963C5.98428 20.4438 6.29422 20.7725 6.51917 21.1567C6.70938 21.4985 6.96716 21.7988 7.27615 22.0425C7.73715 22.4097 8.30273 22.6318 8.89774 22.6807C9.49271 22.7295 10.0889 22.6021 10.6072 22.3154C10.6622 21.6143 10.9683 20.9556 11.4703 20.458C8.34787 20.1089 5.06897 18.916 5.06897 13.6445C5.04556 12.272 5.56061 10.9419 6.5105 9.92139C6.0892 8.72314 6.13834 7.4165 6.64856 6.25049C6.64856 6.25049 7.83035 5.87549 10.5125 7.67285C12.8146 7.04834 15.2501 7.04834 17.5522 7.67285C20.2353 5.87549 21.4084 6.25049 21.4084 6.25049C21.9259 7.40137 21.9877 8.70264 21.5812 9.89648C22.5305 10.9165 23.0452 12.2461 23.0218 13.6182C23.0218 18.9507 19.7352 20.1172 16.603 20.4316C16.939 20.7656 17.1988 21.1665 17.3639 21.6079C17.528 22.0483 17.5956 22.5186 17.5608 22.9883L17.5608 26.7954C17.5608 27.2471 17.8119 27.5962 18.5263 27.46C21.6777 26.3789 24.33 24.2524 26.011 21.4585C27.7132 18.6367 28.3513 15.3325 27.8166 12.1074C27.292 8.89355 25.6219 5.95752 23.0952 3.80811C20.5973 1.68457 17.3937 0.499023 14.0676 0.466797Z" fill="#F9F9F9" fill-opacity="1.000000" fill-rule="evenodd"/>
	</g>
</svg>
