<svg width="138.000000" height="46.000000" viewBox="0 0 138 46" fill="none" xmlns="http://www.w3.org/2000/svg" xmlns:xlink="http://www.w3.org/1999/xlink">
	<desc>
			Created with Pixso.
	</desc>
	<defs>
		<clipPath id="clip1_820">
			<rect id="Frame" width="95.000000" height="42.000000" transform="translate(21.000000 2.000000)" fill="white" fill-opacity="0"/>
		</clipPath>
	</defs>
	<g clip-path="url(#clip1_820)">
		<path id="Vector" d="M37.4069 16.4023C36.8066 15.2759 36.0864 14.4712 35.166 13.9082C34.2456 13.3447 33.1651 13.063 31.9246 13.063C30.2839 13.063 28.8833 13.6665 27.7628 14.8735C26.6424 16.0806 26.0822 17.6094 26.0822 19.4194C26.0822 21.23 26.6424 22.7183 27.8029 23.9253C28.9634 25.1323 30.364 25.6953 32.1247 25.6953C33.4453 25.6953 34.5657 25.4136 35.4461 24.8506C36.3265 24.2871 37.0067 23.4023 37.4069 22.2759L42.6091 22.2759C41.9688 24.8906 40.7283 26.9023 38.8875 28.3906C37.0468 29.8794 34.8058 30.6035 32.1247 30.6035C30.564 30.6035 29.1234 30.3218 27.8029 29.7588C26.4823 29.1953 25.2818 28.3906 24.2014 27.2642C23.2009 26.2183 22.4406 25.0518 21.8804 23.6436C21.2801 22.3159 21 20.9082 21 19.5C21 18.0117 21.2401 16.6035 21.7603 15.3159C22.2805 14.0288 23.0408 12.8623 24.0413 11.8159C25.1617 10.6494 26.3622 9.76416 27.7628 9.16113C29.1234 8.55762 30.644 8.23584 32.2047 8.23584C34.7658 8.23584 37.0067 8.95996 38.9276 10.4482C40.8083 11.937 42.0489 13.9082 42.6491 16.4023L37.4069 16.4023ZM86.3475 10.5688L86.3475 2L91.1896 2L91.1896 30.0806L86.3475 30.0806L86.3475 28.3506C85.3871 29.1147 84.3467 29.6782 83.3062 30.0806C82.2258 30.4424 81.0653 30.6436 79.8248 30.6436C78.5042 30.6436 77.2637 30.4424 76.0632 30C74.9027 29.5576 73.8223 28.9541 72.9019 28.1494C71.6213 27.0229 70.6609 25.7358 69.9807 24.207C69.3004 22.6782 68.9402 21.1094 68.9402 19.4194C68.9402 17.8506 69.2603 16.3623 69.9006 14.9136C70.5408 13.4653 71.4212 12.2183 72.5817 11.1724C73.5421 10.2471 74.6226 9.56299 75.8631 9.08057C77.1036 8.59766 78.4242 8.35645 79.8248 8.35645C81.1854 8.35645 82.3859 8.51709 83.4263 8.87939C84.4267 9.24121 85.4271 9.80469 86.3475 10.5688ZM86.1475 19.54C86.1475 17.73 85.5872 16.2012 84.4267 14.9941C83.2662 13.7876 81.8656 13.1841 80.1449 13.1841C78.4642 13.1841 77.0236 13.7876 75.8231 15.0347C74.6226 16.2817 74.0223 17.73 74.0223 19.46C74.0223 21.23 74.6226 22.7183 75.8231 23.9253C77.0236 25.1323 78.5443 25.6953 80.385 25.6953C81.9857 25.6953 83.3463 25.0918 84.4667 23.8853C85.5472 22.7588 86.1475 21.27 86.1475 19.54ZM99.0729 21.0288C99.2329 22.5576 99.8332 23.7642 100.874 24.6494C101.914 25.5347 103.275 25.9771 104.915 25.9771C106.036 25.9771 106.996 25.7358 107.877 25.293C108.757 24.8105 109.437 24.1665 109.957 23.3623L115.24 23.3623C114.359 25.6553 112.999 27.4653 111.238 28.7529C109.437 30.04 107.396 30.6841 105.035 30.6841C103.475 30.6841 102.034 30.4023 100.714 29.8389C99.393 29.2759 98.1925 28.4712 97.1521 27.3447C96.1517 26.2988 95.3914 25.0918 94.8311 23.7241C94.2709 22.3564 93.9907 20.9482 93.9907 19.54C93.9907 18.0518 94.2308 16.6841 94.751 15.3564C95.2713 14.0688 95.9916 12.8623 96.992 11.8564C98.0724 10.73 99.2729 9.84473 100.634 9.20117C101.994 8.59766 103.395 8.27588 104.835 8.27588C106.676 8.27588 108.357 8.67822 109.957 9.52295C111.558 10.3677 112.879 11.5347 113.999 13.063C114.679 13.9883 115.16 14.9941 115.52 16.1206C115.84 17.2471 116 18.5347 116 20.0229C116 20.1436 116 20.3047 116 20.5459C116 20.7871 116 20.9482 116 21.0688L99.0729 21.0288ZM110.678 17.1265C110.278 15.7183 109.557 14.6323 108.557 13.9082C107.556 13.1841 106.316 12.7817 104.795 12.7817C103.515 12.7817 102.314 13.1841 101.274 13.9883C100.233 14.793 99.5531 15.8389 99.1929 17.1265L110.678 17.1265Z" fill="#4A4A4F" fill-opacity="1.000000" fill-rule="nonzero"/>
		<path id="Vector" d="M44.77 19.3789C44.77 17.8906 45.0501 16.4824 45.5704 15.1147C46.1306 13.7871 46.8909 12.5801 47.9313 11.5342C48.9718 10.4478 50.1723 9.64355 51.5329 9.08008C52.8534 8.51709 54.254 8.23535 55.6946 8.23535C57.2153 8.23535 58.6158 8.47656 59.8964 8.99951C61.1769 9.52295 62.3774 10.2471 63.4579 11.293C64.5784 12.3789 65.4187 13.5859 66.019 14.9941C66.6192 16.4019 66.9393 17.8101 66.9393 19.2983C66.9393 20.9077 66.6993 22.3965 66.139 23.7236C65.6188 25.0513 64.8185 26.2583 63.778 27.3447C62.7376 28.4307 61.5371 29.2754 60.1765 29.8389C58.8159 30.4019 57.3753 30.6836 55.8147 30.6836C54.214 30.6836 52.7734 30.4019 51.4929 29.8389C50.1723 29.2754 49.0118 28.4307 47.9313 27.3042C46.8909 26.1777 46.1306 24.9712 45.6104 23.6436C45.0101 22.2354 44.77 20.8677 44.77 19.3789ZM49.8121 19.3389C49.8121 21.3101 50.3323 22.8789 51.4128 24.0054C52.4933 25.1724 53.9739 25.7354 55.8147 25.7354C57.6154 25.7354 59.056 25.1318 60.1365 23.9653C61.2169 22.7983 61.7372 21.2295 61.7372 19.2183C61.7372 17.4478 61.1769 15.9595 60.0565 14.833C58.936 13.7065 57.4954 13.103 55.8147 13.103C54.054 13.103 52.6133 13.6665 51.4929 14.833C50.3724 15.9995 49.8121 17.4883 49.8121 19.3389ZM68.9002 35.7124L68.9002 34.6665L69.9406 34.6665L69.9406 35.7124L68.9002 35.7124ZM68.9402 43.9194L68.9402 37.5229L69.8606 37.5229L69.8606 43.9194L68.9402 43.9194ZM76.5434 43.9194L76.5434 39.9766C76.5434 38.8501 75.9431 38.2871 74.9827 38.2871C74.0223 38.2871 73.4221 38.8501 73.4221 39.9766L73.4221 43.9194L72.5017 43.9194L72.5017 37.5229L73.4221 37.5229L73.4221 38.2065C73.8622 37.6836 74.5026 37.4424 75.2228 37.4424C75.9031 37.4424 76.4634 37.6436 76.8635 38.0459C77.3037 38.4883 77.5038 39.0918 77.5038 39.8159L77.5038 43.9194L76.5434 43.9194ZM81.9857 43.9995C80.9052 43.9995 80.0649 43.7583 79.3846 43.0742L80.0248 42.4307C80.5451 42.9536 81.2253 43.1548 81.9857 43.1548C83.0261 43.1548 83.6664 42.793 83.6664 42.0283C83.6664 41.4653 83.3463 41.1436 82.626 41.103L81.5855 41.0229C80.345 40.9019 79.6647 40.3789 79.6647 39.293C79.6647 38.126 80.6251 37.4424 81.9857 37.4424C82.9061 37.4424 83.7064 37.6836 84.2667 38.126L83.6664 38.7295C83.2262 38.3677 82.626 38.2065 81.9857 38.2065C81.0653 38.2065 80.5451 38.6089 80.5451 39.2524C80.5451 39.8159 80.8652 40.1377 81.6655 40.1777L82.706 40.2583C83.8265 40.3789 84.5868 40.7812 84.5868 41.9883C84.5868 43.2754 83.5463 43.9995 81.9857 43.9995ZM88.3083 43.9194C87.2279 43.9194 86.6677 43.1548 86.6677 42.1895L86.6677 38.2471L85.8673 38.2471L85.8673 37.5229L86.6677 37.5229L86.6677 35.5112L87.5881 35.5112L87.5881 37.5229L88.9486 37.5229L88.9486 38.2471L87.5881 38.2471L87.5881 42.1489C87.5881 42.7124 87.8682 43.0742 88.4684 43.0742L88.9486 43.0742L88.9486 43.8789L88.3083 43.9194ZM91.0295 35.7124L91.0295 34.6665L92.0699 34.6665L92.0699 35.7124L91.0295 35.7124ZM91.0695 43.9194L91.0695 37.5229L91.9899 37.5229L91.9899 43.9194L91.0695 43.9194ZM96.3918 43.9194C95.3113 43.9194 94.7511 43.1548 94.7511 42.1895L94.7511 38.2471L93.9507 38.2471L93.9507 37.5229L94.7511 37.5229L94.7511 35.5112L95.6714 35.5112L95.6714 37.5229L97.032 37.5229L97.032 38.2471L95.6714 38.2471L95.6714 42.1489C95.6714 42.7124 95.9516 43.0742 96.5518 43.0742L97.032 43.0742L97.032 43.8789L96.3918 43.9194ZM103.155 43.9194L103.155 43.1953C102.714 43.7183 102.074 43.9995 101.354 43.9995C100.674 43.9995 100.113 43.7983 99.7131 43.3965C99.2729 42.9536 99.0729 42.3501 99.0729 41.5859L99.0729 37.5229L99.9933 37.5229L99.9933 41.4653C99.9933 42.5918 100.594 43.1548 101.554 43.1548C102.514 43.1548 103.155 42.5918 103.155 41.4653L103.155 37.5229L104.075 37.5229L104.075 43.9194L103.155 43.9194ZM108.437 43.9194C107.356 43.9194 106.796 43.1548 106.796 42.1895L106.796 38.2471L105.996 38.2471L105.996 37.5229L106.796 37.5229L106.796 35.5112L107.717 35.5112L107.717 37.5229L109.077 37.5229L109.077 38.2471L107.717 38.2471L107.717 42.1489C107.717 42.7124 107.997 43.0742 108.597 43.0742L109.077 43.0742L109.077 43.8789L108.437 43.9194ZM111.678 40.9824C111.678 42.3906 112.318 43.1953 113.559 43.1953C114.279 43.1953 114.719 42.9536 115.24 42.4712L115.88 43.0342C115.24 43.6777 114.639 44.04 113.559 44.04C111.878 44.04 110.798 43.0342 110.798 40.7812C110.798 38.7295 111.798 37.5229 113.399 37.5229C115.04 37.5229 116 38.7295 116 40.6206L116 41.063L111.678 40.9824ZM114.84 39.2124C114.599 38.6489 114.039 38.2471 113.359 38.2471C112.679 38.2471 112.118 38.6089 111.878 39.2124C111.718 39.5742 111.718 39.7754 111.678 40.2583L115.04 40.2583C115 39.7754 115 39.5742 114.84 39.2124Z" fill="#E84610" fill-opacity="1.000000" fill-rule="nonzero"/>
	</g>
</svg>
